<svg xmlns="http://www.w3.org/2000/svg" width="48" height="48" viewBox="0 0 48 48">
  <path fill="#FFFFFF" fill-rule="evenodd" d="M51.7695526,51.6862915 C61.1421356,42.3137085 61.1421356,27.117749 51.7695526,17.745166 C42.3969696,8.372583 27.2010101,8.372583 17.8284271,17.745166 C8.45584412,27.117749 8.45584412,42.3137085 17.8284271,51.6862915 C27.2010101,61.0588745 42.3969696,61.0588745 51.7695526,51.6862915 Z M36.9196485,34.7150069 L43.9966114,27.638044 C44.578418,27.0562374 44.5755306,26.1091775 43.989393,25.5230398 C43.710421,25.2409938 43.3305174,25.081802 42.9338133,25.0807181 C42.5371093,25.0796342 42.1563414,25.2367477 41.8758324,25.5172651 L34.7988696,32.5942279 L27.7211848,25.5165432 C27.1393782,24.9347366 26.1923183,24.937624 25.6061806,25.5237617 C25.0164337,26.1135086 25.0164337,27.0562374 25.5989622,27.6387659 L32.6766469,34.7164506 L25.599684,41.7934135 C25.0185993,42.3744982 25.020043,43.3215581 25.6061806,43.9076958 C26.1959275,44.4974427 27.1386564,44.4974427 27.7211848,43.9149143 L34.7988696,36.8372296 L41.8758324,43.9141924 C42.4569172,44.4952772 43.404699,44.4931117 43.9908366,43.906974 C44.5798617,43.3179489 44.5798617,42.3752201 43.9973332,41.7926916 L36.9196485,34.7150069 L36.9196485,34.7150069 Z" transform="rotate(90 34.757 23.958)"/>
</svg>
